<svg id="Ebene_1" data-name="Ebene 1" xmlns="http://www.w3.org/2000/svg" xmlns:xlink="http://www.w3.org/1999/xlink" viewBox="0 0 817 860.63"><defs><style>.cls-1{fill:#e6e6e6;}.cls-2{fill:url(#Unbenannter_Verlauf_16);}.cls-3{fill:url(#Unbenannter_Verlauf_16-2);}.cls-4{fill:url(#Neues_Verlaufsfeld_1);}</style><linearGradient id="Unbenannter_Verlauf_16" x1="830.01" y1="386.05" x2="83" y2="386.05" gradientUnits="userSpaceOnUse"><stop offset="0" stop-color="#29abe2"/><stop offset="0.18" stop-color="#1d9ad7"/><stop offset="0.47" stop-color="#0d83c8"/><stop offset="0.75" stop-color="#0376bf"/><stop offset="1" stop-color="#0071bc"/></linearGradient><linearGradient id="Unbenannter_Verlauf_16-2" x1="900" y1="586.95" x2="152.99" y2="586.95" xlink:href="#Unbenannter_Verlauf_16"/><linearGradient id="Neues_Verlaufsfeld_1" x1="151.1" y1="549.38" x2="782.9" y2="549.38" gradientUnits="userSpaceOnUse"><stop offset="0" stop-color="#1b1464"/><stop offset="0.18" stop-color="#662d91"/><stop offset="0.61" stop-color="#f0f"/><stop offset="1" stop-color="#f15a24"/></linearGradient></defs><title>Modular-Logo</title><path class="cls-1" d="M149.73,770.3c48.86-74.76,96.29-150.39,141.5-227.09,22.54-38.37,44.46-77.06,65.3-116.14,5.23-9.77,10.33-19.58,15.4-29.4s10-19.7,14.78-29.6c9.66-19.78,18.85-39.71,27.29-59.74s16.07-40.23,21.8-60.19c.74-2.5,1.36-5,2-7.45s1.25-4.94,1.77-7.37c1.11-4.89,2-9.72,2.63-14.36a97.62,97.62,0,0,0,1-13.14c0-1-.07-1.93-.08-2.9s-.14-1.79-.21-2.66-.19-1.65-.36-2.3c-.07-.34-.12-.72-.19-1a8.93,8.93,0,0,1-.23-.89,16.55,16.55,0,0,0-.85-2.35c-.23-.4-.3-.48-.28-.5s-.06-.17-.59-.45a11.07,11.07,0,0,0-2.45-.84,26.33,26.33,0,0,0-8.55-.39,36.33,36.33,0,0,0-9.57,2.34,28.67,28.67,0,0,0-4,2c-.59.35-1.15.71-1.64,1.07s-.91.78-1.39,1.13a25.64,25.64,0,0,0-5.32,6.78c-3.37,5.92-5.85,14.35-7.2,23.48-.66,4.61-1.12,9.38-1.34,14.28s-.27,9.89-.08,15,.47,10.17,1,15.32,1.13,10.31,1.85,15.49q2.28,15.54,5.88,31.08t8.33,30.79a408.76,408.76,0,0,0,23.22,59.09q3.46,7,7.23,13.76c2.54,4.46,5.16,8.8,7.89,13s5.61,8.06,8.55,11.64a73.52,73.52,0,0,0,8.83,9.22l1.07.9c.35.32.68.51,1,.77l1,.75c.31.18.61.37.92.57l.45.31c.15.1.27.13.4.21s.52.27.77.42.42.16.62.26.41.23.51.21a1.17,1.17,0,0,1,.35.14c.08,0,.1,0,.14,0s.05.06,0,0l-.06,0s0,.09-.12.05c-.28,0-.46.13-.11,0a10.64,10.64,0,0,0,2.07-1.38,29.39,29.39,0,0,0,3.35-3.36,73,73,0,0,0,7.32-10.52,207.37,207.37,0,0,0,13-27.41c3.92-9.81,7.52-20,10.89-30.38,6.79-20.75,12.86-42.12,18.87-63.7s11.92-43.42,18.68-65.47c3.4-11,7-22.11,11.17-33.32a242.6,242.6,0,0,1,15.51-34.26A107.11,107.11,0,0,1,592,173.63a68.7,68.7,0,0,1,9.81-9.22,53.44,53.44,0,0,1,14.54-8,47.47,47.47,0,0,1,19.11-2.57,49.39,49.39,0,0,1,17.85,4.73A61.56,61.56,0,0,1,666.27,167a80.75,80.75,0,0,1,9.2,9,124.71,124.71,0,0,1,12.76,17.82c1.75,2.91,3.37,5.8,4.87,8.63l2.19,4.19,1,2,.5,1,.52,1.1a250.69,250.69,0,0,1,14,35.62,341.46,341.46,0,0,1,8.94,35.93q3.48,18,5.46,35.81c1.34,11.9,2.29,23.75,2.94,35.57s.91,23.57,1,35.3-.11,23.4-.47,35-.94,23.26-1.7,34.82q-2.24,34.71-6.21,69c-2.56,22.9-5.69,45.67-9.1,68.37-6.81,45.4-15.27,90.4-24.52,135.21q-3.5,16.8-7.21,33.54T673,798.51q-7.75,33.43-16.13,66.81l0,.15a58.36,58.36,0,0,1-113.2-28.42,63,63,0,0,1,2.17-6.82q11.88-30.76,22.78-61.87,5.46-15.57,10.72-31.21t10.22-31.37q20.12-62.84,36.08-126.69,7.9-31.89,14.5-64,3.25-16,6.12-32.09t5.27-32.13c1.6-10.71,3-21.42,4.24-32.13s2.25-21.4,3.06-32.07,1.32-21.31,1.6-31.91.23-21.12-.12-31.57c-.82-20.85-3-41.39-7.41-60.7a184.55,184.55,0,0,0-8.58-27.6l-.32-.83-.38-.9-.75-1.79L641.38,228c-1-2.2-2-4.27-3-6.24a72.37,72.37,0,0,0-6-10,29.6,29.6,0,0,0-2.48-3c-.64-.7-1-1-.91-1.06s.87.17,1.81.13a6.08,6.08,0,0,0,2.54-.56c.5-.24.39-.43-.21-.08a13.48,13.48,0,0,0-2.62,2,54.41,54.41,0,0,0-7.18,9,127.12,127.12,0,0,0-7.12,12.35c-2.28,4.42-4.46,9.08-6.56,13.86-4.21,9.57-8.11,19.6-11.78,29.84-7.36,20.49-14,41.7-20.56,63.1s-13,43.09-20.27,64.89c-3.67,10.9-7.52,21.85-11.87,32.86a261.11,261.11,0,0,1-15.72,33.32,116,116,0,0,1-11.79,17.07,73.28,73.28,0,0,1-8.48,8.55,54.4,54.4,0,0,1-12,7.76,46.89,46.89,0,0,1-7.72,2.79A42.65,42.65,0,0,1,481,506a41.49,41.49,0,0,1-4.32,0l-2.15-.12c-.71-.05-1.36-.17-2-.27-1.33-.21-2.7-.43-4-.71s-2.46-.66-3.68-1a35.38,35.38,0,0,1-3.44-1.22c-1.08-.45-2.24-.88-3.24-1.37l-3-1.5c-.48-.26-1-.51-1.45-.78l-1.33-.81-2.65-1.64c-.83-.56-1.61-1.13-2.41-1.71s-1.63-1.14-2.35-1.73l-2.18-1.77a117.61,117.61,0,0,1-14.66-14.73,189.18,189.18,0,0,1-11.55-15.28c-3.49-5.16-6.73-10.37-9.8-15.61s-5.91-10.54-8.62-15.87a454.94,454.94,0,0,1-26.79-65.55,461.33,461.33,0,0,1-16.72-68.81,336.37,336.37,0,0,1-3.8-36c-.33-6.12-.36-12.35-.23-18.63s.66-12.7,1.48-19.2a138.22,138.22,0,0,1,4-19.92,100.78,100.78,0,0,1,8.18-20.57,75.12,75.12,0,0,1,15.12-19.69c1.65-1.45,3.27-3,5-4.25s3.52-2.53,5.31-3.65a79.32,79.32,0,0,1,10.92-5.66,86.08,86.08,0,0,1,22.85-6.12,76.73,76.73,0,0,1,24.88.85,61.93,61.93,0,0,1,13.48,4.4,52.29,52.29,0,0,1,13.34,8.82,53.25,53.25,0,0,1,10.13,12.59A63,63,0,0,1,491,181.53l.89,3.16c.26,1,.46,2.05.69,3.07.48,2.08.71,4,1,6s.45,3.84.58,5.71.27,3.73.26,5.49a146.93,146.93,0,0,1-1.05,20.38c-.74,6.48-1.83,12.68-3.05,18.75-.58,3.06-1.28,6-1.95,9s-1.41,5.92-2.2,8.81c-6.14,23.27-14,45.18-22.43,66.68-17,42.9-36.53,84-56.71,124.57s-41.55,80.41-63.26,120C300.4,652.21,254.9,729.89,209,807.24a34.91,34.91,0,0,1-60-35.65c.23-.39.47-.78.72-1.16Z" transform="translate(-83 -73)"/><path class="cls-2" d="M500,100c137,0,257.92,68.89,330,173.91C761,153.85,631.43,73,483,73,262.09,73,83,252.09,83,473a398.1,398.1,0,0,0,70,226.09A398.17,398.17,0,0,1,100,500C100,279.09,279.09,100,500,100Z" transform="translate(-83 -73)"/><path class="cls-3" d="M830,273.91A398.17,398.17,0,0,1,883,473c0,220.91-179.09,400-400,400-137,0-257.92-68.89-330-173.91C222,819.15,351.57,900,500,900c220.91,0,400-179.09,400-400A398.1,398.1,0,0,0,830,273.91Z" transform="translate(-83 -73)"/><path class="cls-4" d="M179.73,794.3c48.86-74.76,96.29-150.39,141.5-227.09,22.54-38.37,44.46-77.06,65.3-116.14,5.23-9.77,10.33-19.58,15.4-29.4s10-19.7,14.78-29.6c9.66-19.78,18.85-39.71,27.29-59.74s16.07-40.23,21.8-60.19c.74-2.5,1.36-5,2-7.45s1.25-4.94,1.77-7.37c1.11-4.89,2-9.72,2.63-14.36a97.62,97.62,0,0,0,1-13.14c0-1-.07-1.93-.08-2.9s-.14-1.79-.21-2.66-.19-1.65-.36-2.3c-.07-.34-.12-.72-.19-1a8.93,8.93,0,0,1-.23-.89,16.55,16.55,0,0,0-.85-2.35c-.23-.4-.3-.48-.28-.5s-.06-.17-.59-.45a11.07,11.07,0,0,0-2.45-.84,26.33,26.33,0,0,0-8.55-.39,36.33,36.33,0,0,0-9.57,2.34,28.67,28.67,0,0,0-4,2c-.59.35-1.15.71-1.64,1.07s-.91.78-1.39,1.13a25.64,25.64,0,0,0-5.32,6.78c-3.37,5.92-5.85,14.35-7.2,23.48-.66,4.61-1.12,9.38-1.34,14.28s-.27,9.89-.08,15,.47,10.17,1,15.32,1.13,10.31,1.85,15.49q2.28,15.54,5.88,31.08t8.33,30.79a408.76,408.76,0,0,0,23.22,59.09q3.46,7,7.23,13.76c2.54,4.46,5.16,8.8,7.89,13s5.61,8.06,8.55,11.64a73.52,73.52,0,0,0,8.83,9.22l1.07.9c.35.32.68.51,1,.77l1,.75c.31.18.61.37.92.57l.45.31c.15.1.27.13.4.21s.52.27.77.42.42.16.62.26.41.23.51.21a1.17,1.17,0,0,1,.35.14c.08,0,.1,0,.14,0s.05.06,0,0l-.06,0s0,.09-.12.05c-.28,0-.46.13-.11,0a10.64,10.64,0,0,0,2.07-1.38,29.39,29.39,0,0,0,3.35-3.36,73,73,0,0,0,7.32-10.52,207.37,207.37,0,0,0,13-27.41c3.92-9.81,7.52-20,10.89-30.38,6.79-20.75,12.86-42.12,18.87-63.7s11.92-43.42,18.68-65.47c3.4-11,7-22.11,11.17-33.32a242.6,242.6,0,0,1,15.51-34.26A107.11,107.11,0,0,1,622,197.63a68.7,68.7,0,0,1,9.81-9.22,53.44,53.44,0,0,1,14.54-8,47.47,47.47,0,0,1,19.11-2.57,49.39,49.39,0,0,1,17.85,4.73A61.56,61.56,0,0,1,696.27,191a80.75,80.75,0,0,1,9.2,9,124.71,124.71,0,0,1,12.76,17.82c1.75,2.91,3.37,5.8,4.87,8.63l2.19,4.19,1,2,.5,1,.52,1.1a250.69,250.69,0,0,1,14,35.62,341.46,341.46,0,0,1,8.94,35.93q3.48,18,5.46,35.81c1.34,11.9,2.29,23.75,2.94,35.57s.91,23.57,1,35.3-.11,23.4-.47,35-.94,23.26-1.7,34.82q-2.24,34.71-6.21,69c-2.56,22.9-5.69,45.67-9.1,68.37-6.81,45.4-15.27,90.4-24.52,135.21q-3.5,16.8-7.21,33.54T703,822.51q-7.75,33.43-16.13,66.81l0,.15a58.36,58.36,0,0,1-113.2-28.42,63,63,0,0,1,2.17-6.82q11.88-30.76,22.78-61.87,5.46-15.57,10.72-31.21t10.22-31.37q20.12-62.84,36.08-126.69,7.9-31.89,14.5-64,3.25-16,6.12-32.09t5.27-32.13c1.6-10.71,3-21.42,4.24-32.13s2.25-21.4,3.06-32.07,1.32-21.31,1.6-31.91.23-21.12-.12-31.57c-.82-20.85-3-41.39-7.41-60.7a184.55,184.55,0,0,0-8.58-27.6l-.32-.83-.38-.9-.75-1.79L671.38,252c-1-2.2-2-4.27-3-6.24a72.37,72.37,0,0,0-6-10,29.6,29.6,0,0,0-2.48-3c-.64-.7-1-1-.91-1.06s.87.17,1.81.13a6.08,6.08,0,0,0,2.54-.56c.5-.24.39-.43-.21-.08a13.48,13.48,0,0,0-2.62,2,54.41,54.41,0,0,0-7.18,9,127.12,127.12,0,0,0-7.12,12.35c-2.28,4.42-4.46,9.08-6.56,13.86-4.21,9.57-8.11,19.6-11.78,29.84-7.36,20.49-14,41.7-20.56,63.1s-13,43.09-20.27,64.89c-3.67,10.9-7.52,21.85-11.87,32.86a261.11,261.11,0,0,1-15.72,33.32,116,116,0,0,1-11.79,17.07,73.28,73.28,0,0,1-8.48,8.55,54.4,54.4,0,0,1-12,7.76,46.89,46.89,0,0,1-7.72,2.79A42.65,42.65,0,0,1,511,530a41.49,41.49,0,0,1-4.32,0l-2.15-.12c-.71,0-1.36-.17-2-.27-1.33-.21-2.7-.43-4-.71s-2.46-.66-3.68-1a35.38,35.38,0,0,1-3.44-1.22c-1.08-.45-2.24-.88-3.24-1.37l-3-1.5c-.48-.26-1-.51-1.45-.78l-1.33-.81-2.65-1.64c-.83-.56-1.61-1.13-2.41-1.71s-1.63-1.14-2.35-1.73l-2.18-1.77a117.61,117.61,0,0,1-14.66-14.73,189.18,189.18,0,0,1-11.55-15.28c-3.49-5.16-6.73-10.37-9.8-15.61s-5.91-10.54-8.62-15.87a454.94,454.94,0,0,1-26.79-65.55,461.33,461.33,0,0,1-16.72-68.81,336.37,336.37,0,0,1-3.8-36c-.33-6.12-.36-12.35-.23-18.63s.66-12.7,1.48-19.2a138.22,138.22,0,0,1,4-19.92,100.78,100.78,0,0,1,8.18-20.57,75.12,75.12,0,0,1,15.12-19.69c1.65-1.45,3.27-3,5-4.25s3.52-2.53,5.31-3.65a79.32,79.32,0,0,1,10.92-5.66,86.08,86.08,0,0,1,22.85-6.12,76.73,76.73,0,0,1,24.88.85,61.93,61.93,0,0,1,13.48,4.4,52.29,52.29,0,0,1,13.34,8.82,53.25,53.25,0,0,1,10.13,12.59A63,63,0,0,1,521,205.53l.89,3.16c.26,1,.46,2.05.69,3.07.48,2.08.71,4,1,6s.45,3.84.58,5.71.27,3.73.26,5.49a146.93,146.93,0,0,1-1.05,20.38c-.74,6.48-1.83,12.68-3,18.75-.58,3.06-1.28,6-2,9s-1.41,5.92-2.2,8.81c-6.14,23.27-14,45.18-22.43,66.68-17,42.9-36.53,84-56.71,124.57s-41.55,80.41-63.26,120C330.4,676.21,284.9,753.89,239,831.24a34.91,34.91,0,0,1-60-35.65c.23-.39.47-.78.72-1.16Z" transform="translate(-83 -73)"/></svg>